<?xml version="1.0" encoding="UTF-8"?>
<svg id="_图层_1" data-name="图层 1" xmlns="http://www.w3.org/2000/svg" viewBox="0 0 920.36 1027.87">
  <defs>
    <style>
      .cls-1 {
        fill: none;
        stroke: #fff;
        stroke-linecap: round;
        stroke-miterlimit: 10;
        stroke-width: 39px;
      }
    </style>
  </defs>
  <path class="cls-1" d="m49.19,740.96c1.32-7.19,3.12-17.18,5.16-29.12,1.82-10.68,6.54-37.15,9.56-61.09,2.77-21.95,3.4-32.74,6.99-72.28,3.82-42.01,5.72-63.01,7-72.28,4.73-34.45,10.76-49.17,24.25-99.8,15.63-58.67,13.43-59.43,24.25-99.8,22.89-85.37,41.5-127.31,41.5-127.31,18.16-40.48,34.13-61.59,60.39-96.3,17.67-23.36,28.17-33.89,39.64-32.64,16.54,1.79,26.18,27.12,35.21,50.83,10.11,26.57,9.83,40.98,23.08,100.73,1.44,6.47-.4,15.07,5.13,22.38,6.64,8.78,18.69,11.82,49.9,12.12,37.51.36,65.48-3.58,69.72-4.2,25.49-3.7,43.66-6.35,67.15-15.39,9.31-3.58,24.58-9.56,42.2-21.45,24.83-16.74,39.5-35.19,48.27-46.4,8.8-11.25,17.37-25.84,34.51-55.03,13.02-22.16,16.19-28.97,25.88-41.27,14.9-18.9,24.33-30.52,39.64-32.64,19.47-2.7,20.21,6.14,23.47,9.09,15.95,14.42,32.79,49.11,34.45,57.41,8.26,41.28,23.77,71.94,30.46,113.51.94,5.85.15.52,25.65,111.92,52.18,227.94,50.83,229.83,66.69,291,.64,2.46,1.45,5.54,4.21,16.14.92,3.53,3.69,14.19,4.59,17.65-111.22,80.77-211.93,140.97-292.35,184.65-122.81,66.71-240.52,127.69-264.1,137.79-80.38,34.45-111.13,69.99-137.79,34.45-34.45-45.93-41.33-79.64-68.9-126.31-32.35-54.78-56.33-96.47-85.82-126.36Z"/>
  <g>
    <path class="cls-1" d="m268.32,449.43c.55,4.85,2.12,13.09,7.32,21.77,2.7,4.51,7.71,12.88,18.2,18.11,11.7,5.84,22.69,4.08,25.43,3.57,1.63-.3,20.16-4.09,29-21.86,5.52-11.09,4.24-21.55,3.57-25.43"/>
    <path class="cls-1" d="m573.26,419.63c.5,4.68,2.01,12.98,7.32,21.77,2.75,4.56,7.71,12.88,18.2,18.11,11.7,5.84,22.69,4.08,25.43,3.57,1.63-.3,20.16-4.09,29-21.86,5.52-11.09,4.24-21.55,3.57-25.43"/>
    <ellipse class="cls-1" cx="424.49" cy="463.57" rx="5.74" ry="17.22" transform="translate(-181.44 630.7) rotate(-62.94)"/>
    <path class="cls-1" d="m444.82,557.25c-6.53-5.08-3.96-28.31-9.35-42.95-3.58-9.73-8.4-30.44.44-37.39,4.74-3.73,9.31-.29,17.43-5.06,7.38-4.34,12.49-12.38,10.91-14.51-1.92-2.59-13.94,3.3-17.43,5.06"/>
    <path class="cls-1" d="m410.17,547.12c3.27,2.16,8.17,4.98,14.54,7.23,5.06,1.78,13.87,4.77,25.43,3.57,10.36-1.08,17.97-5.02,21.77-7.32,10.08-6.09,15.61-14.03,18.11-18.2"/>
  </g>
  <g>
    <path class="cls-1" d="m823.28,499.94c7.56-4,19.3-9.09,34.45-11.48,14.22-2.25,26.25-1.29,34.45,0"/>
    <path class="cls-1" d="m111.36,446.18c-7.56-4-19.3-9.09-34.45-11.48-14.22-2.25-26.25-1.29-34.45,0"/>
    <path class="cls-1" d="m99.88,558.19H19.5"/>
    <path class="cls-1" d="m800.31,387.04c10.21-2.49,21.91-6.11,34.45-11.48,8.58-3.68,16.24-7.61,22.97-11.48"/>
  </g>
  <path class="cls-1" d="m443.4,235.78c-1.89-16.94-3.42-42.52,0-73.4,3.01-27.17,4.7-42.41,14.68-58.72,21.5-35.16,66.99-51.62,73.4-44.04,4.09,4.85-6.64,20.85-14.68,29.36-20.15,21.31-58.8,32.98-88.08,14.68-20.73-12.96-34.74-37.86-29.36-44.04,5.41-6.22,29.49-.3,44.04,14.68,8.04,8.28,11.51,17.66,13.12,23.69"/>
</svg>